<?xml version="1.0" encoding="UTF-8"?>
<svg width="443px" height="77px" viewBox="0 0 443 77" version="1.1" xmlns="http://www.w3.org/2000/svg" xmlns:xlink="http://www.w3.org/1999/xlink">
    <title>logo-multiversxdocs</title>
    <g id="logo-multiversxdocs" stroke="none" stroke-width="1" fill="none" fill-rule="evenodd">
        <g id="logo-(2)" transform="translate(0.000000, 10.000000)" fill-rule="nonzero">
            <polygon id="Path" fill="#FFFFFF" points="20.6531022 39.2310459 32.3153697 11.0148638 41 11.0148638 41 47.8033927 35.2600184 47.8033927 35.2600184 16.6581002 22.3914707 48 18.273263 48 5.51769051 16.8545723 5.51769051 47.8182565 0 47.8182565 0 11 9.07103532 11"></polygon>
            <path d="M71.3107621,41.5389869 C70.3515437,43.4813062 68.8759732,45.1149055 67.0497515,46.2561227 C65.2235298,47.3974708 63.1188422,48.001306 60.972144,48 C53.2669217,48 48,42.1061943 48,34.0011189 L48,16 L53.7532292,16 L53.7532292,32.92073 C53.7532292,38.8110015 57.0716695,42.6769338 62.3385912,42.6769338 C67.7864312,42.6769338 71.2965852,38.6854206 71.2965852,32.92073 L71.2965852,16 L77,16 L77,47.3036775 L71.3107621,47.3036775 L71.3107621,41.5389869 Z" id="Path" fill="#FFFFFF"></path>
            <path d="M119,48 L111.660162,48 C104.448303,48 100.810477,44.3546069 100.810477,37.0639577 L100.810477,20.6917045 L94,20.6917045 L94,15.2593245 L100.810477,15.2593245 L100.810477,7 L106.519529,7 L106.519529,15.2593245 L119,15.2593245 L119,20.6917045 L106.519529,20.6917045 L106.519529,35.671145 C106.519529,40.4426914 107.961927,42.4287492 112.914302,42.4287492 L118.996485,42.4287492 L119,48 Z" id="Path" fill="#FFFFFF"></path>
            <polygon id="Path" fill="#FFFFFF" points="154.431776 48 149.809686 48 135 16 141.481217 16 152.282366 40.2378039 163.026777 16 169 16"></polygon>
            <path d="M201,32.6666479 L174.857426,32.6666479 C175.178218,38.3491954 179.374917,42.8141542 185.545215,42.8141542 C191.838284,42.8141542 194.382178,39.5389839 194.893069,38.5522118 L200.610561,38.5522118 C200.10231,41.208131 196.093069,48 185.538614,48 C175.811881,48 169,40.9561458 169,31.9983005 C169,22.7954837 175.805281,16.000022 184.965677,16.000022 C194.194719,15.9860166 201,22.6590342 201,32.6666479 Z M175.238944,27.9707451 L194.576238,27.9707451 C193.110891,23.3378386 189.741914,20.8044689 184.972277,20.8044689 C179.883168,20.8044689 176.449505,23.5232569 175.238944,27.9707451 Z" id="Shape" fill="#FFFFFF"></path>
            <path d="M211.042323,48 L205,48 L205,16.2583897 L211.042323,16.2583897 L211.042323,22.1037273 C211.971063,19.7888314 214.757283,16 222.458661,16 L226,16 L226,21.8453376 L222.326378,21.8453376 C213.896063,21.8453376 211.046457,24.4184905 211.046457,30.0709643 L211.042323,48 Z" id="Path" fill="#FFFFFF"></path>
            <path d="M240.128089,33.861566 C234.166008,33.1669594 229.960239,30.4094167 229.960239,24.8318066 C229.960239,19.4973342 235.108006,16 242.702624,16 C253.187079,16 256.56811,21.2754916 257.57786,24.3351528 L251.4907,24.3351528 C250.801465,23.5363805 248.475784,20.7788378 242.702624,20.7788378 C237.995238,20.7788378 235.591383,22.4319458 235.591383,24.6408151 C235.591383,26.7871597 237.162683,28.1346053 240.864229,28.5653171 C243.313685,28.8708529 244.817234,28.992485 247.519454,29.3015647 C254.861308,30.2184252 258,33.2850475 258,38.866075 C258,43.9539924 253.228772,48 244.440695,48 C233.522374,48 229.689235,41.4395874 229,38.6820447 L235.089765,38.6820447 C235.402462,39.6614299 237.913155,43.0962393 244.440695,43.0962393 C249.713541,43.0962393 252.286773,41.2555571 252.286773,38.866075 C252.286773,36.4767194 250.968236,35.0458652 246.766376,34.5735124 L240.128089,33.861566 Z" id="Path" fill="#FFFFFF"></path>
            <path d="M124,0 L130,0 L130,9.37934613 L124,9.37934613 L124,0 Z M124.125213,15.601261 L129.871116,15.601261 L129.871116,48 L124.125213,48 L124.125213,15.601261 Z" id="Shape" fill="#FFFFFF"></path>
            <polygon id="Path" fill="#FFFFFF" points="85 6 91 6 91 48 85 48"></polygon>
            <path d="M280.722953,19.4849797 L294.993296,11.6936127 L292.595911,7 L279.52292,12.3861939 C279.187715,12.5255606 278.812285,12.5255606 278.47708,12.3861939 L265.404089,7 L263,11.7087016 L277.269002,19.5000686 L263,27.2914355 L265.404089,32 L278.47708,26.5725173 C278.812285,26.4330134 279.187715,26.4330134 279.52292,26.5725173 L292.595911,31.973663 L295,27.2649613 L280.722953,19.4849797 Z" id="Path" fill="#23F7DD"></path>
            <path d="M309,48 L319.918818,48 C330.782863,48 339,40.3270771 339,27.5 C339,14.6729229 330.782863,7 319.918818,7 L309,7 L309,48 Z M312.693954,44.3686333 L312.693954,10.6313667 L320.029637,10.6313667 C327.859545,10.6313667 335.084409,15.7272124 335.084409,27.5 C335.084409,39.2727876 327.859545,44.3686333 320.029637,44.3686333 L312.693954,44.3686333 Z" id="Shape" fill="#FFFFFF"></path>
            <path d="M359.5,48 C367.949213,48 374,41.7693333 374,33 C374,24.2308 367.949213,18 359.5,18 C351.050787,18 345,24.2308 345,33 C345,41.7693333 351.050787,48 359.5,48 Z M359.5,44.6539333 C353.106393,44.6539333 348.768391,39.8077999 348.768391,33 C348.768391,26.1923333 353.106393,21.3462 359.5,21.3462 C365.893607,21.3462 370.231609,26.1923333 370.231609,33 C370.231609,39.8077999 365.893607,44.6539333 359.5,44.6539333 Z" id="Shape" fill="#FFFFFF"></path>
            <path d="M391.992897,48 C399.368238,48 403.839849,44.3654333 404.884656,38.5385333 L401.400179,38.5385333 C400.238687,42.3462 396.813223,44.6539333 391.992897,44.6539333 C385.082957,44.6539333 381.831851,39.2885 381.831851,33 C381.831851,26.7116333 385.025284,21.3462 391.992897,21.3462 C396.813223,21.3462 400.819433,24.1731 401.400179,27.9807667 L405,27.9807667 C404.012866,21.577 398.206746,18 391.992897,18 C382.7023,18 378,25.3846666 378,33 C378,40.6154666 382.7023,48 391.992897,48 Z" id="Path" fill="#FFFFFF"></path>
            <path d="M421.91529,48 C427.954598,48 432,44.7693333 432,39.6923999 C432,26.3077333 415.321836,34.3846666 415.321836,25.9615333 C415.321836,23.1923333 417.704796,21.3462 421.306112,21.3462 C423.965507,21.3462 427.899567,22.6154666 428.342373,26.7116333 L431.833628,26.7116333 C431.500884,21.4616 427.456762,18 421.527515,18 C415.543238,18 411.665488,21.1154 411.665488,25.9615333 C411.665488,38.5962333 428.342373,30.1731 428.342373,39.6923999 C428.342373,42.3462 425.79432,44.6539333 421.91529,44.6539333 C417.483393,44.6539333 414.87903,42.4616 414.491255,38.3654333 L411,38.3654333 C411.444086,44.3654333 415.599549,48 421.91529,48 Z" id="Path" fill="#FFFFFF"></path>
        </g>
    </g>
</svg>