<?xml version="1.0" encoding="UTF-8"?>
<svg width="408px" height="77px" viewBox="0 0 408 77" version="1.1" xmlns="http://www.w3.org/2000/svg" xmlns:xlink="http://www.w3.org/1999/xlink">
    <title>logo-xportal</title>
    <g id="logo-xportal" stroke="none" stroke-width="1" fill="none" fill-rule="evenodd">
        <g id="xportal-logo.3a5137f7" transform="translate(0.000000, 0.000000)" fill-rule="nonzero">
            <path d="M111.280226,9.75975 C126.294061,9.75975 134.458636,16.8212917 134.458636,29.5359167 C134.458636,42.2505417 126.294061,49.5462917 111.280226,49.5462917 L86.1737579,49.5462917 L86.1737579,75.9155833 L75,75.9155833 L75,9.75975 L111.280226,9.75975 Z M86.180174,39.5395 L111.042828,39.5395 C119.088704,39.5395 122.938405,35.6574167 122.938405,29.6482083 C122.938405,23.639 119.217027,19.7569167 111.046036,19.7569167 L86.180174,19.7569167 L86.180174,39.5362917 L86.180174,39.5395 Z M202.569475,46.0909167 C202.569475,63.6372917 188.944741,77 171.216867,77 C153.488992,77 139.864258,63.6372917 139.864258,46.0909167 C139.864258,28.5445417 153.367085,15.1818333 171.216867,15.1818333 C189.066648,15.1818333 202.569475,28.5445417 202.569475,46.0909167 Z M191.235313,46.0909167 C191.235313,34.2778333 183.154148,25.2110833 171.223283,25.2110833 C159.289209,25.2110833 151.208044,34.51525 151.208044,46.0909167 C151.208044,57.6665833 159.286001,66.9739583 171.223283,66.9739583 C183.160565,66.9739583 191.235313,57.9072083 191.235313,46.0909167 Z M338.710952,38.6925 L358.848097,38.6925 C358.848097,29.62575 351.934675,24.7298333 342.287966,24.7298333 C332.644464,24.7298333 328.586237,30.2192917 327.636644,32.12825 L316.671412,32.12825 C318.224125,25.0891667 326.083932,15.1818333 342.287966,15.1818333 C359.448009,15.1818333 369.216626,24.8485417 369.216626,38.5705833 L369.216626,60.4097083 C369.216626,64.58375 370.65064,66.1397917 374.458636,66.4927083 L374.458636,76.278125 C366.002125,76.0407083 360.878815,72.93825 359.326102,67.0926667 C356.467699,71.5105417 350.276096,77 339.78566,77 C325.843325,77 315,69.24225 315,57.0730417 C315,44.9038333 323.937723,38.6925 338.710952,38.6925 Z M358.848097,47.2844167 L339.192164,47.2844167 C331.091751,47.2844167 325.843325,50.5087917 325.843325,57.0698333 C325.843325,63.6372917 332.278742,67.93325 340.735253,67.93325 C350.26968,67.93325 358.848097,63.2779583 358.848097,53.3770417 L358.848097,47.2844167 Z M384.188756,0 L395,0 L395,75.9155833 L384.188756,75.9155833 L384.188756,0 Z M307.432129,75.9091667 L293.509043,75.9091667 C279.823355,75.9091667 272.916349,69.3609583 272.916349,56.2613333 L272.916349,26.85375 L255.544572,26.85375 L255.544572,17.0907917 L272.919557,17.0907917 L272.919557,3.25325 L283.753258,3.25325 L283.753258,17.0907917 L307.435337,17.0907917 L307.435337,26.85375 L283.753258,26.85375 L283.753258,53.76525 C283.753258,62.3379167 286.486546,65.912 295.892649,65.912 L307.435337,65.912 L307.435337,75.9155833 L307.435337,75.9091667 L307.432129,75.9091667 Z M212.299595,75.9155833 L212.299595,16.737875 L223.181417,16.737875 L223.181417,27.4954167 C224.856037,23.2379583 229.883105,16.26625 243.754862,16.26625 L250.135742,16.26625 L250.135742,27.027 L243.514256,27.027 C228.327185,27.027 223.184625,32.0576667 223.184625,42.455875 L223.184625,75.9155833 L212.299595,75.9155833 Z" id="Shape" fill="#FAFAFA"></path>
            <path d="M32.120233,26.50318 L58,13.1026475 L53.6463348,5 L29.9497747,14.2856086 C29.3404226,14.5250075 28.6627645,14.5250075 28.0534125,14.2856086 L4.35047807,5 L0,13.1026475 L25.879767,26.50318 L0,39.8909925 L4.35047807,48 L28.0470381,38.7048514 C28.6563902,38.4654525 29.3340483,38.4654525 29.9434004,38.7048514 L53.6399604,47.99364 L57.9904385,39.8909925 L32.1106715,26.49364 L32.120233,26.5 L32.120233,26.50318 Z" id="Path" fill="#23F7DD"></path>
        </g>
    </g>
</svg>